<?xml version="1.0" standalone="no"?> 
<!DOCTYPE svg PUBLIC "-//W3C//DTD SVG 1.1//EN" "http://www.w3.org/Graphics/SVG/1.1/DTD/svg11.dtd" >
<svg xmlns="http://www.w3.org/2000/svg">
<defs>
  <font id="icon" horiz-adv-x="800">
    <font-face font-family="icon"
      units-per-em="800" ascent="800"
      descent="0" />
    <missing-glyph horiz-adv-x="0" />
    <glyph glyph-name="01_kit"
      unicode="&#xE001;"
      horiz-adv-x="800" d=" M793 638.1C788.2 675.8 771 710.7 742.4 739.6C715.8 766.6 683.9 784.1 648.8 790.8C595.2 800.9 546.7 786.4 502 757.3C466.1 775.9 420.8 770.3 390.6 740.6L342.8 693.5C305.8 657 305.7 597.9 342.5 561.3L348.5 555.3C348.1 554.9 347.7 554.6 347.4 554.2L33 245.7000000000001C15.4 228.5 5.5 204.9000000000001 5.5 180.3000000000001V96.7000000000001C5.5 46.1 46.6 5 97.4 5H174.6C199 5 222.3 14.7 239.6 31.9L554.1 345.6C555 346.4 555.8000000000001 347.3 556.6 348.2L562.6 342.2C599.7 305.3 660.1 305.2 697.4000000000001 341.9L741.6000000000001 385.5C772.8000000000002 416.2 777.8000000000002 463 756.6000000000001 498.8C784.5 541.7 799.4 587.7 793 638.1zM174.6 96.7000000000001H97.4V180.3000000000001L411.8 488.8000000000001L489.1 410.5000000000001L174.6 96.7000000000001zM629.9 495.5L674.3 451.8L630.0999999999999 408.2L410 627.2L455.6 672.1L520 607.7C532.5 595.2 552.7 595.2 565.2 607.7C577.7 620.2 577.7 640.4 565.2 652.9L545.3000000000001 672.8C580.6 698.1 631.1 718.1 674.3000000000001 674.3C750 597.5 629.9 495.5 629.9 495.5z" />
    <glyph glyph-name="02_cart"
      unicode="&#xE002;"
      horiz-adv-x="800" d=" M738.2 791H651.1C629.1 791 610.1 775.4 605.8000000000001 753.8L543.8000000000001 441.5H176.4L123.9 607.7H468.5C494 607.7 514.7 628.4 514.7 653.9S494.0000000000001 700.1 468.5000000000001 700.1H60.8C46.1 700.1 32.2 693.1 23.5 681.2C14.8 669.3 12.3 654 16.7 640L98.4 381.5C104.5 362.3 122.3 349.2 142.4 349.2H525.2L515.4000000000001 299.8H245.4000000000001C219.9000000000001 299.8 199.2000000000001 279.1 199.2000000000001 253.6C199.2000000000001 228.1 219.9000000000001 207.4 245.4000000000001 207.4H553.3000000000001C575.3000000000001 207.4 594.3000000000001 223 598.6 244.6L688.8000000000001 698.6H738.0000000000001C763.5000000000001 698.6 784.2000000000002 719.3000000000001 784.2000000000002 744.8000000000001S763.7 791 738.2 791z M522.6 101.8C522.6 51.9839155652624 563.9688891156346 11.5999999999999 615 11.5999999999999C666.0311108843654 11.5999999999999 707.4 51.9839155652624 707.4 101.8C707.4 151.6160844347376 666.0311108843654 192 615 192C563.9688891156346 192 522.6 151.6160844347376 522.6 101.8z M122.4 101.8C122.4 51.9839155652624 163.7688891156347 11.5999999999999 214.8 11.5999999999999C265.8311108843654 11.5999999999999 307.2000000000001 51.9839155652624 307.2000000000001 101.8C307.2000000000001 151.6160844347376 265.8311108843654 192 214.8 192C163.7688891156347 192 122.4 151.6160844347376 122.4 101.8z" />
    <glyph glyph-name="03_arwb"
      unicode="&#xE003;"
      horiz-adv-x="800" d=" M282.6 177.6C347.4000000000001 85 452.8 85.5 517.2 177.6L759.7 524C824.5 616.6 785.5 691.6 672.3000000000001 691.6H127.5C14.4 691.6 -24.3 616.1 40.1 524L282.6 177.6z" />
    <glyph glyph-name="04_arwl"
      unicode="&#xE004;"
      horiz-adv-x="800" d=" M177.6 517.4C85 452.6 85.5 347.2 177.6 282.8L524 40.3C616.6 -24.5 691.6 14.5 691.6 127.6999999999999V672.5C691.6 785.6 616.1 824.3 524 759.9L177.6 517.4z" />
    <glyph glyph-name="05_arwt"
      unicode="&#xE005;"
      horiz-adv-x="800" d=" M517.4 622.4C452.6 715 347.2 714.5 282.8 622.4L40.3 276C-24.5 183.4 14.5 108.4 127.7 108.4H672.5C785.6 108.4 824.3 183.9 759.9 276L517.4 622.4z" />
    <glyph glyph-name="06_arwr"
      unicode="&#xE006;"
      horiz-adv-x="800" d=" M517.4 622.4C452.6 715 347.2 714.5 282.8 622.4L40.3 276C-24.5 183.4 14.5 108.4 127.7 108.4H672.5C785.6 108.4 824.3 183.9 759.9 276L517.4 622.4z" />
    <glyph glyph-name="07_edit"
      unicode="&#xE007;"
      horiz-adv-x="800" d=" M356.1 227.9L592.3 637L681.5999999999999 585.4L443.2 172.5L374.9 155.6L356.1 227.9zM352.6 54.2L484.8 86.9000000000001C497.1 89.9000000000001 507.6 97.9000000000001 513.9 108.8000000000001L785.5 579.2C798.4 601.5 790.7 629.9000000000001 768.5 642.8000000000001L598.5 740.9000000000001C576.2 753.8000000000001 547.8 746.1 534.9 723.9000000000001L265.9 258C259.8 247.4 258.1 234.8 261.2 223L296.4 87.7000000000001C302.8 63 327.9 48.1 352.6 54.2z M8.2 150.5H256.5V57.4H8.2V150.5z" />
    <glyph glyph-name="08_question"
      unicode="&#xE008;"
      horiz-adv-x="800" d=" M400 5C181.8 5 5 181.8 5 400S181.8 795 400 795S795 618.2 795 400S618.2 5 400 5zM400 89.6C571.4 89.6 710.4 228.6 710.4 400S571.4 710.4 400 710.4S89.6 571.4 89.6 400S228.6 89.6 400 89.6z M430.8 313.2C429.8 321.6 429.3 327.4 429.3 333.8C429.3 358 437 371.7 458.7 386C503.6 414.5 508.7 418.1 521.1 429.7C542.8000000000001 450.3 553.1 475 553.1 507.2C553.1 579.9 493.8 625.8 398.9000000000001 625.8C339.6 625.8 293.7000000000001 607.9 263.8000000000001 573.0999999999999C244.2000000000001 551 236.0000000000001 530.4 230.8000000000001 493L337.0000000000001 482.5C339.1000000000001 498.8 341.1000000000001 506.2 346.3000000000001 514.6C356.1000000000001 530.9000000000001 373.1000000000001 539.4000000000001 396.3000000000001 539.4000000000001C427.2000000000001 539.4000000000001 445.3000000000001 524.6 445.3000000000001 499.9C445.3000000000001 482.5000000000001 437.0000000000001 471.4 411.8000000000001 456.2C375.2000000000001 433.5000000000001 371.1000000000001 430.4000000000001 358.7000000000001 415.6C342.2000000000001 395 336.0000000000001 374 336.0000000000001 337.6C336.0000000000001 322.3 336.0000000000001 321.8 335.0000000000001 313.4000000000001H430.8z M338.1 278.5H445.5V174.3H338.1V278.5z" />
    <glyph glyph-name="09_linearwb"
      unicode="&#xE009;"
      horiz-adv-x="800" d=" M450.1 212.8V708.8C450.1 737.4 426.9000000000001 760.5 398.4000000000001 760.5S346.7000000000001 737.3 346.7000000000001 708.8V216.3L93.5 469.4C73.3 489.6 40.5 489.6 20.3 469.4S0.1 416.4 20.3 396.2L361.8 54.7C372.3 44.2 386.3 39.1 400.1 39.6C413.9000000000001 39.1 427.9000000000001 44.2 438.4000000000001 54.7L779.9000000000001 396.3000000000001C800.1000000000001 416.5000000000001 800.1000000000001 449.3000000000001 779.9000000000001 469.5000000000001S726.9000000000001 489.7 706.7 469.5000000000001L450.1 212.8z" />
    <glyph glyph-name="10_linearwl"
      unicode="&#xE00A;"
      horiz-adv-x="800" d=" M212.9 350H708.9C737.5 350 760.6 373.2 760.6 401.7S737.4 453.4 708.9 453.4H216.4L469.5 706.6C489.7 726.8 489.7 759.6 469.5 779.8S416.5 800 396.3 779.8L54.8 438.3C44.3 427.8 39.2 413.8 39.7 400C39.2 386.2 44.3 372.2 54.8 361.7L396.4000000000001 20.2C416.6 0 449.4000000000001 0 469.6 20.2S489.8 73.2000000000001 469.6 93.4000000000001L212.9 350z" />
    <glyph glyph-name="11_linearwt"
      unicode="&#xE00B;"
      horiz-adv-x="800" d=" M350.1 587.2V91.2000000000001C350.1 62.6 373.3 39.5 401.8 39.5S453.5 62.7000000000001 453.5 91.2000000000001V583.7L706.7 330.6C726.9000000000001 310.4000000000001 759.7 310.4000000000001 779.9000000000001 330.6C800.1000000000001 350.8 800.1000000000001 383.6 779.9000000000001 403.8L438.4 745.3C427.9 755.8 413.9 760.9 400.1 760.4C386.3 760.9 372.3 755.8 361.8 745.3L20.3 403.7C0.1 383.5 0.1 350.7 20.3 330.5S73.3 310.3 93.5 330.5L350.1 587.2z" />
    <glyph glyph-name="12_linearwr"
      unicode="&#xE00C;"
      horiz-adv-x="800" d=" M587.3 450H91.3C62.7 450 39.6 426.8 39.6 398.3S62.8 346.6 91.3 346.6H583.8L330.7 93.4C310.5 73.1999999999999 310.5 40.4 330.7 20.1999999999999S383.7 -1e-13 403.9 20.1999999999999L745.4 361.7C755.9 372.2 761 386.2 760.5 400C761 413.8 755.9 427.8 745.4 438.3L403.8 779.8C383.6 800 350.8 800 330.6 779.8S310.4000000000001 726.8 330.6 706.6L587.3 450z" />
    <glyph glyph-name="13_outlink"
      unicode="&#xE00D;"
      horiz-adv-x="800" d=" M594 678.4L376.5 460.9C354.5 438.9 354.5 403.4 376.5 381.4C398.5 359.4 434 359.4 456 381.4L670.8 596.2V454.7C670.8 423.7 696 398.5 727 398.5C758 398.5 783.2 423.7 783.2 454.7V732C783.2 748.2 776.3000000000001 762.8 765.4000000000001 773.1C755.1000000000001 784.1 740.5000000000001 790.9 724.3000000000001 790.9H418.3C387.3 790.9 362.1 765.7 362.1 734.7C362.1 703.7 387.3 678.5 418.3 678.5H594z M118.9 118.9V681.1H208.7C239.7 681.1 264.9 706.3 264.9 737.3S239.8 793.5 208.8 793.5H62.7C31.7 793.5 6.5 768.3 6.5 737.3V62.6999999999999C6.5 31.6999999999999 31.7 6.4999999999999 62.7 6.4999999999999H737.3000000000001C768.3000000000001 6.4999999999999 793.5000000000001 31.6999999999999 793.5000000000001 62.6999999999999V227C793.5000000000001 258 768.3000000000001 283.2000000000001 737.3000000000001 283.2000000000001S681.1 258 681.1 227V118.9H118.9z" />
    <glyph glyph-name="14_circlearwb"
      unicode="&#xE00E;"
      horiz-adv-x="800" d=" M299.7 474.8C282.4 491.5 254.9 491.1 238.1 473.8C221.4 456.5 221.8 429 239.1 412.2L373.9 281.5C391.2 264.8 418.8 265.2000000000001 435.5 282.5L562 413.3C578.7 430.6 578.3 458.2 561 474.9S516.1 491.2 499.4 473.9L403.2 374.5L299.7 474.8zM400 8C183.5 8 8 183.5 8 400S183.5 792 400 792S792 616.5 792 400S616.5 8 400 8z" />
    <glyph glyph-name="15_circlearwl"
      unicode="&#xE00F;"
      horiz-adv-x="800" d=" M474.8 500.3C491.5 517.6 491.1 545.1 473.8 561.9C456.5 578.6 429 578.2 412.2 560.9L281.5 426.1C264.8 408.8 265.2 381.2000000000001 282.5 364.5L413.3 238C430.6 221.3 458.2 221.7000000000001 474.9 239S491.2 283.9 473.9 300.6L374.5 396.8L474.8 500.3zM8 400C8 616.5 183.5 792 400 792S792 616.5 792 400S616.5 8 400 8S8 183.5 8 400z" />
    <glyph glyph-name="16_circlearwt"
      unicode="&#xE010;"
      horiz-adv-x="800" d=" M500.3 325.2C517.6 308.5 545.1 308.9 561.9 326.2C578.6 343.5 578.1999999999999 371 560.9 387.8L426.1 518.5C408.8 535.2 381.2000000000001 534.8 364.5 517.5L238 386.7C221.3 369.4 221.7 341.8 239 325.1S283.9 308.8 300.6 326.1L396.8 425.5L500.3 325.2zM400 792C616.5 792 792 616.5 792 400S616.5 8 400 8S8 183.5 8 400S183.5 792 400 792z" />
    <glyph glyph-name="17_circlearwr"
      unicode="&#xE011;"
      horiz-adv-x="800" d=" M325.2 299.7C308.5 282.4 308.9 254.9 326.2 238.1C343.5 221.4 371 221.8000000000001 387.8 239.1L518.5 373.9000000000001C535.2 391.2000000000001 534.8 418.8 517.5 435.5000000000001L386.7 562C369.4 578.7 341.8 578.3 325.1 561S308.8 516.1 326.1 499.4L425.5 403.2L325.2 299.7zM792 400C792 183.5 616.5 8 400 8S8 183.5 8 400S183.5 792 400 792S792 616.5 792 400z" />
    <glyph glyph-name="18_check"
      unicode="&#xE012;"
      horiz-adv-x="800" d=" M363.7 270.7000000000001L132.8 501.6C109.6 524.8 71.9 524.8 48.6 501.6S25.4 440.7000000000001 48.6 417.4000000000001L279.5 186.5C302.7 163.3 340.4 163.3 363.7 186.5C387 209.8 387 247.5 363.7 270.7000000000001z M367.7 186.5L760.5 579.3C783.7 602.5 783.7 640.2 760.5 663.5C737.3 686.7 699.6 686.7 676.3 663.5L283.5 270.7000000000001C260.3 247.5 260.3 209.8000000000001 283.5 186.5C306.8 163.3 344.5 163.3 367.7 186.5z" />
    <glyph glyph-name="19_cross"
      unicode="&#xE013;"
      horiz-adv-x="800" d=" M118 608.7L608.7 118C628.9000000000001 97.8 661.7 97.8 682 118C702.2 138.2000000000001 702.2 171 682 191.3L191.3 682C171.1 702.2 138.3 702.2 118 682S97.8 629 118 608.7z M608.7 682L118 191.3C97.8 171.0999999999999 97.8 138.3 118 118C138.2 97.8 171 97.8 191.3 118L682 608.7C702.2 628.9 702.2 661.7 682 682S629 702.2 608.7 682z" />
    <glyph glyph-name="20_star"
      unicode="&#xE014;"
      horiz-adv-x="800" d=" M400 149L221.4 55.2C179.1 33 151.4 53.3000000000001 159.5 100.1L193.6 298.7000000000001L49 439.4C14.8 472.7 25.5 505.3 72.7 512.0999999999999L272.4 541.0999999999999L361.7 721.8C382.8 764.5999999999999 417.2 764.4 438.3 721.8L527.5999999999999 541.0999999999999L727.3 512.0999999999999C774.5999999999999 505.2 785.0999999999999 472.6 751 439.4L606.5 298.7L640.6 100.1C648.7 53.1 620.8000000000001 33 578.7 55.2L400 149z" />
    <glyph glyph-name="21_login"
      unicode="&#xE015;"
      horiz-adv-x="800" d=" M670.2 671.2C670.2 718.7 631.7 757.3 584.4000000000001 757.3H222.2C174.9 757.3 136.4 718.7 136.4 671.2V244.4C136.4 196.9 174.9 158.3 222.2 158.3H335.7V97.8C335.7 47.9 378.1 17.9 425.1 34.5999999999999L598.5 96.3C638.2 110.4 669.2 154.3 669.2 196.6999999999999V231.4999999999999C669.8000000000001 235.7 670.2 239.9999999999999 670.2 244.3999999999999V671.2zM222.2 226.9C212.8 226.9 204.9 234.9 204.9 244.4V671.2C204.9 680.9 212.7 688.7 222.2 688.7H467.6L406.5 667C366.8 652.9 335.8 609 335.8 566.6V226.9H222.2z" />
    <glyph glyph-name="22_account"
      unicode="&#xE016;"
      horiz-adv-x="800" d=" M399.5 371.8C309.6 371.8 236.4 444.9 236.4 534.9S309.5 698 399.5 698C489.4 698 562.6 624.9 562.6 534.9S489.4 371.8 399.5 371.8zM399.5 667.9C326.1 667.9 266.4 608.2 266.4 534.8S326.1 401.7000000000001 399.5 401.7000000000001C472.9 401.7000000000001 532.6 461.4 532.6 534.8000000000001S472.9 667.9 399.5 667.9z M616 110.9C607.7 110.9 601 117.6 601 125.9C601 237 510.6 327.4 399.5 327.4C288.4 327.4 198 237 198 125.9C198 117.6 191.3 110.9 183 110.9S168 117.6 168 125.9C168 187.6999999999999 192.1 245.9 235.8 289.6C279.5 333.3 337.7000000000001 357.4 399.5 357.4S519.5 333.3 563.2 289.6C606.9000000000001 245.9 631 187.6999999999999 631 125.9C631 117.6 624.3 110.9 616 110.9z" />
  </font>
</defs>
</svg>
